<svg xmlns="http://www.w3.org/2000/svg" viewBox="0 0 64 64">
  <defs>
    <linearGradient id="bg" x1="12" y1="8" x2="52" y2="56" gradientUnits="userSpaceOnUse">
      <stop stop-color="#4f46e5"/>
      <stop offset="1" stop-color="#9333ea"/>
    </linearGradient>
  </defs>

  <rect width="64" height="64" rx="16" fill="url(#bg)"/>

  <path
    d="M32 10L48 16V29C48 41.5 40.2 50.4 32 54C23.8 50.4 16 41.5 16 29V16L32 10Z"
    fill="white"
    fill-opacity="0.94"
  />

  <path
    d="M32 20.5C25.6 20.5 20.5 25.6 20.5 32C20.5 38.4 25.6 43.5 32 43.5C38.4 43.5 43.5 38.4 43.5 32C43.5 25.6 38.4 20.5 32 20.5ZM32 24.5L36.6 27.8L34.8 33.1H29.2L27.4 27.8L32 24.5ZM25.3 31.1L27.2 36.5L24.8 38.2C23.6 36.5 23 34.4 23 32C23 31.7 23 31.4 23.1 31.1H25.3ZM30.1 35.6H33.9L35.6 40.1C34.5 40.7 33.3 41 32 41C30.7 41 29.5 40.7 28.4 40.1L30.1 35.6ZM38.7 31.1H40.9C41 31.4 41 31.7 41 32C41 34.4 40.4 36.5 39.2 38.2L36.8 36.5L38.7 31.1Z"
    fill="#312e81"
  />
</svg>